<?xml version="1.0" standalone="no"?><!DOCTYPE svg PUBLIC "-//W3C//DTD SVG 1.1//EN" "http://www.w3.org/Graphics/SVG/1.1/DTD/svg11.dtd"><svg t="1620703727920" class="icon" viewBox="0 0 1024 1024" version="1.1" xmlns="http://www.w3.org/2000/svg" p-id="3845" xmlns:xlink="http://www.w3.org/1999/xlink" width="48" height="48"><defs><style type="text/css"></style></defs><path d="M512 1024a512 512 0 1 1 512-512 512 512 0 0 1-512 512z m0-967.111111a455.111111 455.111111 0 1 0 455.111111 455.111111A455.111111 455.111111 0 0 0 512 56.888889z" p-id="3846"></path><path d="M328.059259 402.014815m-72.059259 0a72.059259 72.059259 0 1 0 144.118519 0 72.059259 72.059259 0 1 0-144.118519 0Z" p-id="3847"></path><path d="M695.940741 402.014815m-72.05926 0a72.059259 72.059259 0 1 0 144.118519 0 72.059259 72.059259 0 1 0-144.118519 0Z" p-id="3848"></path><path d="M512 804.02963c-89.125926 0-166.874074-47.407407-187.733333-117.570371a28.444444 28.444444 0 1 1 54.992592-17.066666c13.274074 43.614815 70.162963 75.851852 134.637037 75.851851s119.466667-32.237037 134.637037-75.851851a28.444444 28.444444 0 1 1 54.992593 17.066666c-24.651852 70.162963-102.4 117.57037-191.525926 117.570371z" p-id="3849"></path></svg>